<mxfile host="app.diagrams.net" modified="2022-12-01T08:27:14.193Z" agent="5.0 (Windows NT 10.0; Win64; x64) AppleWebKit/537.36 (KHTML, like Gecko) Chrome/107.0.0.0 Safari/537.36" etag="JbKY5gpG8kQbfZmXI3DE" version="20.5.1" type="github">
  <diagram id="SKNd3EIdWUoYjQNpWwd_" name="Page-1">
    <mxGraphModel dx="1422" dy="794" grid="1" gridSize="10" guides="1" tooltips="1" connect="1" arrows="1" fold="1" page="1" pageScale="1" pageWidth="2339" pageHeight="3300" background="none" math="0" shadow="0">
      <root>
        <mxCell id="0" />
        <mxCell id="1" parent="0" />
        <mxCell id="kuPXHheHs1qFwVD4z0sM-7" value="&lt;p style=&quot;line-height: 1;&quot;&gt;&lt;br&gt;&lt;/p&gt;" style="rounded=1;arcSize=10;html=1;align=center;whiteSpace=wrap;fillStyle=auto;glass=0;fillColor=#f5f5f5;strokeColor=#666666;fontColor=#333333;" parent="1" vertex="1">
          <mxGeometry x="800" y="320" width="320" height="640" as="geometry" />
        </mxCell>
        <mxCell id="kuPXHheHs1qFwVD4z0sM-14" value="&lt;font color=&quot;#007fff&quot;&gt;Subscribe&lt;/font&gt;&lt;br&gt;filterStore$&lt;br&gt;isMyProjects&lt;br&gt;sortingInfo" style="shape=rhombus;perimeter=rhombusPerimeter;whiteSpace=wrap;html=1;align=center;rounded=1;" parent="1" vertex="1">
          <mxGeometry x="360" y="640" width="160" height="120" as="geometry" />
        </mxCell>
        <mxCell id="88GkFY1QWdadN0h81eSF-1" value="FinancingPageComponent" style="text;html=1;strokeColor=none;fillColor=none;align=center;verticalAlign=middle;whiteSpace=wrap;rounded=1;glass=0;fillStyle=auto;" parent="1" vertex="1">
          <mxGeometry x="880" y="890" width="160" height="40" as="geometry" />
        </mxCell>
        <mxCell id="kuPXHheHs1qFwVD4z0sM-4" value="" style="rounded=1;arcSize=10;whiteSpace=wrap;html=1;align=center;fillColor=#fff2cc;strokeColor=#d6b656;" parent="1" vertex="1">
          <mxGeometry x="840" y="360" width="240" height="170" as="geometry" />
        </mxCell>
        <mxCell id="88GkFY1QWdadN0h81eSF-2" value="FinancingFilterComponent" style="text;html=1;strokeColor=none;fillColor=none;align=center;verticalAlign=middle;whiteSpace=wrap;rounded=1;glass=0;fillStyle=auto;" parent="1" vertex="1">
          <mxGeometry x="885" y="480" width="160" height="40" as="geometry" />
        </mxCell>
        <mxCell id="kuPXHheHs1qFwVD4z0sM-5" value="" style="rounded=1;arcSize=10;whiteSpace=wrap;html=1;align=center;fillColor=#fff2cc;strokeColor=#d6b656;" parent="1" vertex="1">
          <mxGeometry x="845" y="640" width="240" height="190" as="geometry" />
        </mxCell>
        <mxCell id="88GkFY1QWdadN0h81eSF-22" value="ProjectFilterService" style="strokeWidth=2;html=1;shape=mxgraph.flowchart.stored_data;whiteSpace=wrap;glass=0;fillStyle=auto;strokeColor=default;fillColor=none;gradientColor=none;rounded=1;" parent="1" vertex="1">
          <mxGeometry x="120" y="480" width="160" height="80" as="geometry" />
        </mxCell>
        <mxCell id="88GkFY1QWdadN0h81eSF-30" value="&lt;font color=&quot;#007fff&quot;&gt;Publish&lt;/font&gt;&lt;br&gt;filterStore$&lt;br&gt;isMyProjects" style="shape=rhombus;perimeter=rhombusPerimeter;whiteSpace=wrap;html=1;align=center;rounded=1;" parent="1" vertex="1">
          <mxGeometry x="360" y="360" width="160" height="120" as="geometry" />
        </mxCell>
        <mxCell id="88GkFY1QWdadN0h81eSF-32" value="&lt;font color=&quot;#3399ff&quot;&gt;Publish&lt;/font&gt;&lt;br&gt;sortingInfo" style="shape=rhombus;perimeter=rhombusPerimeter;whiteSpace=wrap;html=1;align=center;rounded=1;" parent="1" vertex="1">
          <mxGeometry x="380" y="520" width="120" height="80" as="geometry" />
        </mxCell>
        <mxCell id="88GkFY1QWdadN0h81eSF-35" value="ExportHelper" style="strokeWidth=2;html=1;shape=mxgraph.flowchart.stored_data;whiteSpace=wrap;glass=0;fillStyle=auto;strokeColor=default;fillColor=none;gradientColor=none;rounded=1;" parent="1" vertex="1">
          <mxGeometry x="1520" y="880" width="160" height="80" as="geometry" />
        </mxCell>
        <mxCell id="88GkFY1QWdadN0h81eSF-36" value="FavouriteProjectService" style="strokeWidth=2;html=1;shape=mxgraph.flowchart.stored_data;whiteSpace=wrap;glass=0;fillStyle=auto;strokeColor=default;fillColor=none;gradientColor=none;rounded=1;" parent="1" vertex="1">
          <mxGeometry x="120" y="800" width="160" height="80" as="geometry" />
        </mxCell>
        <mxCell id="88GkFY1QWdadN0h81eSF-37" value="&lt;font color=&quot;#007fff&quot;&gt;Subscribe&lt;/font&gt;&lt;br&gt;dealIds" style="shape=rhombus;perimeter=rhombusPerimeter;whiteSpace=wrap;html=1;align=center;rounded=1;" parent="1" vertex="1">
          <mxGeometry x="380" y="800" width="120" height="80" as="geometry" />
        </mxCell>
        <mxCell id="88GkFY1QWdadN0h81eSF-41" value="" style="endArrow=classic;html=1;rounded=1;strokeColor=default;fontColor=#3399FF;" parent="1" edge="1">
          <mxGeometry width="50" height="50" relative="1" as="geometry">
            <mxPoint x="834" y="420" as="sourcePoint" />
            <mxPoint x="520" y="420" as="targetPoint" />
          </mxGeometry>
        </mxCell>
        <mxCell id="88GkFY1QWdadN0h81eSF-54" value="Done / Reset" style="edgeLabel;html=1;align=center;verticalAlign=middle;resizable=0;points=[];fontSize=14;rounded=1;" parent="88GkFY1QWdadN0h81eSF-41" vertex="1" connectable="0">
          <mxGeometry x="0.0955" y="3" relative="1" as="geometry">
            <mxPoint x="14" y="-13" as="offset" />
          </mxGeometry>
        </mxCell>
        <mxCell id="88GkFY1QWdadN0h81eSF-42" value="" style="endArrow=classic;html=1;rounded=1;strokeColor=default;fontColor=#3399FF;" parent="1" edge="1">
          <mxGeometry width="50" height="50" relative="1" as="geometry">
            <mxPoint x="970" y="620" as="sourcePoint" />
            <mxPoint x="500" y="560" as="targetPoint" />
            <Array as="points">
              <mxPoint x="970" y="600" />
              <mxPoint x="850" y="600" />
              <mxPoint x="720" y="685" />
              <mxPoint x="720" y="560" />
            </Array>
          </mxGeometry>
        </mxCell>
        <mxCell id="88GkFY1QWdadN0h81eSF-45" value="" style="endArrow=classic;html=1;rounded=1;fontSize=11;startSize=6;endSize=6;" parent="1" edge="1">
          <mxGeometry width="50" height="50" relative="1" as="geometry">
            <mxPoint x="360" y="420" as="sourcePoint" />
            <mxPoint x="200" y="470" as="targetPoint" />
            <Array as="points">
              <mxPoint x="200" y="420" />
            </Array>
          </mxGeometry>
        </mxCell>
        <mxCell id="88GkFY1QWdadN0h81eSF-46" value="" style="endArrow=classic;html=1;rounded=1;fontSize=11;startSize=6;endSize=6;" parent="1" edge="1">
          <mxGeometry width="50" height="50" relative="1" as="geometry">
            <mxPoint x="380" y="559" as="sourcePoint" />
            <mxPoint x="280" y="520" as="targetPoint" />
            <Array as="points">
              <mxPoint x="330" y="560" />
              <mxPoint x="330" y="520" />
            </Array>
          </mxGeometry>
        </mxCell>
        <mxCell id="88GkFY1QWdadN0h81eSF-47" value="" style="endArrow=classic;html=1;rounded=1;fontSize=11;startSize=6;endSize=6;" parent="1" edge="1">
          <mxGeometry width="50" height="50" relative="1" as="geometry">
            <mxPoint x="200" y="570" as="sourcePoint" />
            <mxPoint x="360" y="700" as="targetPoint" />
            <Array as="points">
              <mxPoint x="200" y="700" />
            </Array>
          </mxGeometry>
        </mxCell>
        <mxCell id="88GkFY1QWdadN0h81eSF-48" value="" style="endArrow=classic;html=1;rounded=1;fontSize=11;startSize=6;endSize=6;entryX=0;entryY=0.5;entryDx=0;entryDy=0;" parent="1" target="88GkFY1QWdadN0h81eSF-37" edge="1">
          <mxGeometry width="50" height="50" relative="1" as="geometry">
            <mxPoint x="280" y="839.5" as="sourcePoint" />
            <mxPoint x="350" y="839.5" as="targetPoint" />
          </mxGeometry>
        </mxCell>
        <mxCell id="88GkFY1QWdadN0h81eSF-49" value="" style="endArrow=classic;html=1;rounded=1;fontSize=11;startSize=6;endSize=6;targetPerimeterSpacing=6;sourcePerimeterSpacing=6;startArrow=none;startFill=0;jumpStyle=none;sketch=0;" parent="1" edge="1">
          <mxGeometry width="50" height="50" relative="1" as="geometry">
            <mxPoint x="560" y="760" as="sourcePoint" />
            <mxPoint x="841" y="760" as="targetPoint" />
            <Array as="points">
              <mxPoint x="643" y="760" />
            </Array>
          </mxGeometry>
        </mxCell>
        <mxCell id="88GkFY1QWdadN0h81eSF-50" value="" style="endArrow=classic;html=1;rounded=1;fontSize=11;startSize=6;endSize=6;" parent="1" edge="1">
          <mxGeometry width="50" height="50" relative="1" as="geometry">
            <mxPoint x="720" y="760" as="sourcePoint" />
            <mxPoint x="790" y="880" as="targetPoint" />
            <Array as="points">
              <mxPoint x="720" y="880" />
            </Array>
          </mxGeometry>
        </mxCell>
        <mxCell id="88GkFY1QWdadN0h81eSF-52" value="" style="endArrow=classic;startArrow=classic;html=1;rounded=1;sketch=0;fontSize=11;startSize=6;endSize=6;sourcePerimeterSpacing=6;targetPerimeterSpacing=6;jumpStyle=none;exitX=1;exitY=0.5;exitDx=0;exitDy=0;entryX=1;entryY=0.5;entryDx=0;entryDy=0;" parent="1" source="88GkFY1QWdadN0h81eSF-37" target="kuPXHheHs1qFwVD4z0sM-14" edge="1">
          <mxGeometry width="50" height="50" relative="1" as="geometry">
            <mxPoint x="690" y="800" as="sourcePoint" />
            <mxPoint x="740" y="750" as="targetPoint" />
            <Array as="points">
              <mxPoint x="560" y="840" />
              <mxPoint x="560" y="760" />
              <mxPoint x="560" y="700" />
            </Array>
          </mxGeometry>
        </mxCell>
        <mxCell id="88GkFY1QWdadN0h81eSF-62" value="" style="endArrow=classic;html=1;rounded=1;sketch=0;fontSize=14;fontColor=#3399FF;startSize=6;endSize=6;sourcePerimeterSpacing=6;targetPerimeterSpacing=6;jumpStyle=none;" parent="1" edge="1">
          <mxGeometry width="50" height="50" relative="1" as="geometry">
            <mxPoint x="1130" y="920" as="sourcePoint" />
            <mxPoint x="1510" y="920" as="targetPoint" />
          </mxGeometry>
        </mxCell>
        <mxCell id="88GkFY1QWdadN0h81eSF-63" value="Export" style="text;html=1;align=center;verticalAlign=middle;resizable=0;points=[];autosize=1;strokeColor=none;fillColor=none;fontSize=14;fontColor=#000000;rounded=1;" parent="1" vertex="1">
          <mxGeometry x="1280" y="895" width="60" height="30" as="geometry" />
        </mxCell>
        <mxCell id="4DGdLXyVOE1tpYwqWEd2-1" value="FinancingTableComponent" style="text;html=1;strokeColor=none;fillColor=none;align=center;verticalAlign=middle;whiteSpace=wrap;rounded=1;glass=0;fillStyle=auto;" vertex="1" parent="1">
          <mxGeometry x="885" y="770" width="160" height="40" as="geometry" />
        </mxCell>
        <mxCell id="4DGdLXyVOE1tpYwqWEd2-2" value="FinancingLoansTableComponent" style="rounded=1;whiteSpace=wrap;html=1;fillColor=#ffe6cc;strokeColor=#d79b00;" vertex="1" parent="1">
          <mxGeometry x="870" y="660" width="190" height="40" as="geometry" />
        </mxCell>
        <mxCell id="4DGdLXyVOE1tpYwqWEd2-4" value="FinancingBondsTableComponent" style="rounded=1;whiteSpace=wrap;html=1;fillColor=#ffe6cc;strokeColor=#d79b00;" vertex="1" parent="1">
          <mxGeometry x="870" y="715" width="190" height="40" as="geometry" />
        </mxCell>
        <mxCell id="4DGdLXyVOE1tpYwqWEd2-5" value="FinancingLoansFilterComponent" style="rounded=1;whiteSpace=wrap;html=1;fillColor=#ffe6cc;strokeColor=#d79b00;" vertex="1" parent="1">
          <mxGeometry x="865" y="380" width="190" height="40" as="geometry" />
        </mxCell>
        <mxCell id="4DGdLXyVOE1tpYwqWEd2-6" value="FinancingBondsFilterComponent" style="rounded=1;whiteSpace=wrap;html=1;fillColor=#ffe6cc;strokeColor=#d79b00;" vertex="1" parent="1">
          <mxGeometry x="865" y="430" width="190" height="40" as="geometry" />
        </mxCell>
      </root>
    </mxGraphModel>
  </diagram>
</mxfile>
